<?xml version="1.0" encoding="UTF-8" standalone="no"?>
<!DOCTYPE svg PUBLIC "-//W3C//DTD SVG 1.1//EN" "http://www.w3.org/Graphics/SVG/1.1/DTD/svg11.dtd">
<!-- Created with Vectornator (http://vectornator.io/) -->
<svg height="100%" stroke-miterlimit="10" style="fill-rule:nonzero;clip-rule:evenodd;stroke-linecap:round;stroke-linejoin:round;" version="1.1" viewBox="0 0 1024 1024" width="100%" xml:space="preserve" xmlns="http://www.w3.org/2000/svg" xmlns:vectornator="http://vectornator.io" xmlns:xlink="http://www.w3.org/1999/xlink">
<defs/>
<g id="레이어-1" vectornator:layerName="레이어 1">
<g opacity="1">
<path d="M131.746 341.024C132.323 338.563 131.016 333.063 133.477 333.64C139.72 335.104 133.752 359.652 133.573 360.927C129.777 387.939 124.869 415.263 117.283 441.496C102.401 492.963 82.5168 543.706 63.418 593.751C56.567 611.703 35.7835 648.23 39.3794 668.61C40.8967 677.209 97.946 668.454 107.124 667.612C138.538 664.73 170.205 665.436 201.789 662.538C231.099 659.849 262.341 652.803 291.532 656.31" fill="none" opacity="1" stroke="#000000" stroke-linecap="round" stroke-linejoin="miter" stroke-width="63.314"/>
<path d="M429.298 351.051C433.207 367.494 424.739 384.565 421.452 401.143C417.435 421.398 412.88 441.543 408.547 461.734C399.784 502.569 391.667 543.385 379.988 583.569C373.828 604.765 361.329 628.128 361.661 650.678" fill="none" opacity="1" stroke="#000000" stroke-linecap="round" stroke-linejoin="miter" stroke-width="63.314"/>
<path d="M434.086 363.858C443.377 388.71 447.065 408.543 453.833 434.699C457.225 447.808 460.159 451.369 465.292 463.351C481.703 501.655 506.731 507.904 534.998 470.602C557.582 440.8 570.962 404.39 594.919 375.592C600.428 368.969 606.211 355.458 614.802 351.691C621.529 348.741 618.103 380.293 618.013 382.304C616.535 415.19 609.061 447.759 604.127 480.315C598.518 517.32 592.379 557.011 592.932 594.536C593.36 623.562 601.314 658.471 594.602 687.105" fill="none" opacity="1" stroke="#000000" stroke-linecap="round" stroke-linejoin="miter" stroke-width="63.314"/>
<path d="M750.445 360.117C764.532 363.419 817.723 357.751 831.65 357.081C870.256 355.225 906.726 352.275 945.063 355.104C958.376 356.086 970.852 352.514 983.137 358.836" fill="none" opacity="1" stroke="#000000" stroke-linecap="round" stroke-linejoin="miter" stroke-width="63.314"/>
<path d="M863.724 369.793C862.735 369.561 866.599 394.932 866.934 400.406C867.742 413.593 868.397 426.741 869.356 439.922C872.955 489.39 872.349 541.497 862.679 590.255C856.279 622.527 845.613 670.933 817.891 692.707C785.016 718.529 723.869 676.773 707.19 649.881" fill="none" opacity="1" stroke="#000000" stroke-linecap="round" stroke-linejoin="miter" stroke-width="63.314"/>
</g>
</g>
</svg>

