<?xml version="1.0" encoding="iso-8859-1"?>
<!-- Uploaded to: SVG Repo, www.svgrepo.com, Generator: SVG Repo Mixer Tools -->
<svg preserveAspectRatio="none" version="1.1" id="Layer_1" xmlns="http://www.w3.org/2000/svg" xmlns:xlink="http://www.w3.org/1999/xlink" 
	 viewBox="0 0 512 512" xml:space="preserve">
<rect x="197.534" y="391.444" style="fill:#69539C;" width="116.943" height="54.324"/>
<rect x="275.834" y="391.444" style="fill:#4F4482;" width="38.638" height="54.324"/>
<path style="fill:#F5BA3D;" d="M314.468,477.508V445.77H197.531v31.737c0,14.326,11.613,25.94,25.94,25.94h65.057
	C302.855,503.448,314.468,491.835,314.468,477.508z"/>
<path style="fill:#EF9325;" d="M275.83,445.77v31.737c0,14.326-11.614,25.94-25.94,25.94h38.638c14.326,0,25.94-11.614,25.94-25.94
	V445.77H275.83z"/>
<rect x="197.534" y="103.306" style="fill:#EA7E73;" width="116.943" height="288.138"/>
<rect x="236.166" y="103.306" style="fill:#E44F50;" width="39.662" height="288.138"/>
<rect x="275.834" y="103.306" style="fill:#DD263D;" width="38.638" height="288.138"/>
<path style="fill:#FBD6DB;" d="M260.493,11.128l53.975,92.183H197.531l53.975-92.183C253.518,7.693,258.482,7.693,260.493,11.128z"
	/>
<path style="fill:#EFB7C0;" d="M259.975,10.243l54.494,93.067h-38.638l-18.3-92.14C257.241,9.705,259.22,8.953,259.975,10.243z"/>
<g>
	<path style="fill:#4F4482;" d="M314.468,454.322H197.531c-4.723,0-8.552-3.829-8.552-8.552s3.829-8.552,8.552-8.552h116.938
		c4.723,0,8.552,3.829,8.552,8.552S319.192,454.322,314.468,454.322z"/>
	<path style="fill:#4F4482;" d="M314.468,399.999H197.531c-4.723,0-8.552-3.829-8.552-8.552c0-4.723,3.829-8.552,8.552-8.552
		h116.938c4.723,0,8.552,3.829,8.552,8.552C323.021,396.17,319.192,399.999,314.468,399.999z"/>
	<path style="fill:#4F4482;" d="M280.646,45.548l-20.154-34.42c-2.011-3.434-6.976-3.434-8.986,0l-20.154,34.42H280.646z"/>
</g>
<path d="M323.02,437.224v-37.231c4.675-0.056,8.449-3.859,8.449-8.546c0-4.688-3.774-8.49-8.449-8.546V103.31
	c0-1.498-0.415-3.03-1.172-4.322L267.872,6.807C265.377,2.545,260.938,0,256,0c-4.938,0-9.377,2.545-11.873,6.807L190.151,98.99
	c-0.757,1.292-1.172,2.822-1.172,4.322v279.59c-4.675,0.056-8.449,3.859-8.449,8.546c0,4.688,3.774,8.49,8.449,8.546v37.231
	c-4.675,0.056-8.449,3.859-8.449,8.546s3.774,8.49,8.449,8.546v23.191c0,19.019,15.473,34.492,34.492,34.492h65.057
	c19.019,0,34.492-15.473,34.492-34.492v-23.191c4.675-0.056,8.449-3.859,8.449-8.546S327.695,437.28,323.02,437.224z
	 M206.083,399.999h99.835v37.221h-99.835V399.999z M206.083,111.862h99.835v271.034h-99.835V111.862z M256,20.379l43.551,74.379
	h-87.104L256,20.379z M305.916,477.508c0,9.588-7.8,17.389-17.389,17.389H223.47c-9.588,0-17.389-7.8-17.389-17.389v-23.186h99.835
	V477.508z"/>
<path d="M235.332,303.42c4.723,0,8.552-3.829,8.552-8.552V139.997c0-4.723-3.829-8.552-8.552-8.552
	c-4.723,0-8.552,3.829-8.552,8.552v154.871C226.78,299.591,230.609,303.42,235.332,303.42z"/>
<path d="M275.831,131.446c-4.723,0-8.552,3.829-8.552,8.552v186.158c0,4.723,3.829,8.552,8.552,8.552s8.552-3.829,8.552-8.552
	V139.997C284.383,135.274,280.554,131.446,275.831,131.446z"/>
<circle cx="235.333" cy="324.113" r="8.552"/>
<circle cx="275.834" cy="355.481" r="8.552"/>
</svg>